<svg xmlns="http://www.w3.org/2000/svg" xmlns:xlink="http://www.w3.org/1999/xlink" viewBox="0 0 2378.85 837.98"><defs><style>.cls-1{fill:none;}.cls-2{clip-path:url(#clip-path);}.cls-3,.cls-4{fill:#b5c3c2;}.cls-4{opacity:0.29;}.cls-5{fill:#95a9a7;}.cls-6{fill:#658280;}.cls-7{opacity:0.52;}.cls-10,.cls-11,.cls-8,.cls-9{fill:#fff;}.cls-9{opacity:0.5;}.cls-10{opacity:0.33;}.cls-11{opacity:0.4;}</style><clipPath id="clip-path" transform="translate(316.24 -387.44)"><rect class="cls-1" width="1200" height="1200" transform="translate(1200 1200) rotate(180)"/></clipPath></defs><g id="Object"><g class="cls-2"><rect class="cls-3" x="649.81" y="250.74" width="104.97" height="417.83"/><rect class="cls-3" x="666.97" y="220.79" width="70.67" height="175.58"/><rect class="cls-3" x="682.7" y="201.78" width="39.2" height="97.39"/><polygon class="cls-3" points="715.65 251.83 688.94 251.83 688.94 185.46 698.58 185.46 708.13 185.46 715.65 185.46 715.65 251.83"/><polygon class="cls-3" points="700.54 222.93 697.64 222.93 697.64 156.55 698.69 156.55 699.72 156.55 700.54 156.55 700.54 222.93"/><polygon class="cls-3" points="706.96 199.98 704.06 199.98 704.06 133.61 705.1 133.61 706.14 133.61 706.96 133.61 706.96 199.98"/><rect class="cls-3" x="647.01" y="249.67" width="110.57" height="4.45"/><rect class="cls-3" x="664.39" y="218.64" width="75.82" height="4.28"/><rect class="cls-3" x="679.84" y="199.98" width="43.7" height="3.29"/><rect class="cls-4" x="673.46" y="227.91" width="3.29" height="18.4"/><rect class="cls-4" x="682.55" y="227.91" width="3.29" height="18.4"/><rect class="cls-4" x="691.64" y="227.91" width="3.29" height="18.4"/><rect class="cls-4" x="700.73" y="227.91" width="3.29" height="18.4"/><rect class="cls-4" x="709.82" y="227.91" width="3.29" height="18.4"/><rect class="cls-4" x="718.91" y="227.91" width="3.29" height="18.4"/><rect class="cls-4" x="728" y="227.91" width="3.29" height="18.4"/><rect class="cls-3" x="659.03" y="267.4" width="7.94" height="21.83"/><rect class="cls-4" x="674.75" y="267.4" width="7.94" height="21.83"/><rect class="cls-3" x="690.47" y="267.4" width="7.94" height="21.83"/><rect class="cls-3" x="706.19" y="267.4" width="7.94" height="21.83"/><rect class="cls-3" x="721.91" y="267.4" width="7.94" height="21.83"/><rect class="cls-3" x="737.63" y="267.4" width="7.94" height="21.83"/><rect class="cls-3" x="659.03" y="301.42" width="7.94" height="21.83"/><rect class="cls-3" x="674.75" y="301.42" width="7.94" height="21.83"/><rect class="cls-3" x="690.47" y="301.42" width="7.94" height="21.83"/><rect class="cls-4" x="706.19" y="301.42" width="7.94" height="21.83"/><rect class="cls-3" x="721.91" y="301.42" width="7.94" height="21.83"/><rect class="cls-3" x="737.63" y="301.42" width="7.94" height="21.83"/><rect class="cls-3" x="659.03" y="335.45" width="7.94" height="21.83"/><rect class="cls-3" x="674.75" y="335.45" width="7.94" height="21.83"/><rect class="cls-3" x="690.47" y="335.45" width="7.94" height="21.83"/><rect class="cls-3" x="706.19" y="335.45" width="7.94" height="21.83"/><rect class="cls-4" x="721.91" y="335.45" width="7.94" height="21.83"/><rect class="cls-4" x="737.63" y="335.45" width="7.94" height="21.83"/><rect class="cls-4" x="659.03" y="369.47" width="7.94" height="21.83"/><rect class="cls-3" x="674.75" y="369.47" width="7.94" height="21.83"/><rect class="cls-3" x="690.47" y="369.47" width="7.94" height="21.83"/><rect class="cls-3" x="706.19" y="369.47" width="7.94" height="21.83"/><rect class="cls-3" x="721.91" y="369.47" width="7.94" height="21.83"/><rect class="cls-3" x="737.63" y="369.47" width="7.94" height="21.83"/><rect class="cls-3" x="659.03" y="403.5" width="7.94" height="21.83"/><rect class="cls-4" x="674.75" y="403.5" width="7.94" height="21.83"/><rect class="cls-3" x="690.47" y="403.5" width="7.94" height="21.83"/><rect class="cls-4" x="706.19" y="403.5" width="7.94" height="21.83"/><rect class="cls-3" x="721.91" y="403.5" width="7.94" height="21.83"/><rect class="cls-3" x="737.63" y="403.5" width="7.94" height="21.83"/><rect class="cls-3" x="659.03" y="437.52" width="7.94" height="21.83"/><rect class="cls-3" x="674.75" y="437.52" width="7.94" height="21.83"/><rect class="cls-3" x="690.47" y="437.52" width="7.94" height="21.83"/><rect class="cls-3" x="706.19" y="437.52" width="7.94" height="21.83"/><rect class="cls-3" x="721.91" y="437.52" width="7.94" height="21.83"/><rect class="cls-4" x="737.63" y="437.52" width="7.94" height="21.83"/><rect class="cls-3" x="659.03" y="471.55" width="7.94" height="21.83"/><rect class="cls-4" x="674.75" y="471.55" width="7.94" height="21.83"/><rect class="cls-4" x="690.47" y="471.55" width="7.94" height="21.83"/><rect class="cls-3" x="706.19" y="471.55" width="7.94" height="21.83"/><rect class="cls-3" x="721.91" y="471.55" width="7.94" height="21.83"/><rect class="cls-3" x="737.63" y="471.55" width="7.94" height="21.83"/><rect class="cls-3" x="659.03" y="505.57" width="7.94" height="21.83"/><rect class="cls-3" x="674.75" y="505.57" width="7.94" height="21.83"/><rect class="cls-3" x="690.47" y="505.57" width="7.94" height="21.83"/><rect class="cls-3" x="706.19" y="505.57" width="7.94" height="21.83"/><rect class="cls-4" x="721.91" y="505.57" width="7.94" height="21.83"/><rect class="cls-3" x="737.63" y="505.57" width="7.94" height="21.83"/><rect class="cls-3" x="659.03" y="539.6" width="7.94" height="21.83"/><rect class="cls-4" x="674.75" y="539.6" width="7.94" height="21.83"/><rect class="cls-3" x="690.47" y="539.6" width="7.94" height="21.83"/><rect class="cls-3" x="706.19" y="539.6" width="7.94" height="21.83"/><rect class="cls-3" x="721.91" y="539.6" width="7.94" height="21.83"/><rect class="cls-3" x="737.63" y="539.6" width="7.94" height="21.83"/><rect class="cls-3" x="659.03" y="573.62" width="7.94" height="21.83"/><rect class="cls-3" x="674.75" y="573.62" width="7.94" height="21.83"/><rect class="cls-3" x="690.47" y="573.62" width="7.94" height="21.83"/><rect class="cls-4" x="706.19" y="573.62" width="7.94" height="21.83"/><rect class="cls-3" x="721.91" y="573.62" width="7.94" height="21.83"/><rect class="cls-4" x="737.63" y="573.62" width="7.94" height="21.83"/><rect class="cls-4" x="659.03" y="607.64" width="7.94" height="21.83"/><rect class="cls-3" x="674.75" y="607.64" width="7.94" height="21.83"/><rect class="cls-4" x="690.47" y="607.64" width="7.94" height="21.83"/><rect class="cls-3" x="706.19" y="607.64" width="7.94" height="21.83"/><rect class="cls-3" x="721.91" y="607.64" width="7.94" height="21.83"/><rect class="cls-3" x="737.63" y="607.64" width="7.94" height="21.83"/><rect class="cls-3" x="344.95" y="266.63" width="168.74" height="351.98"/><rect class="cls-3" x="340.15" y="260.58" width="178.33" height="9.95"/><rect class="cls-3" x="350.62" y="247.85" width="157.4" height="47.29"/><rect class="cls-3" x="362.67" y="228.5" width="62.33" height="51.67"/><polygon class="cls-3" points="398.74 243.06 362.67 243.06 362.67 215.86 388.54 215.86 398.74 243.06"/><rect class="cls-3" x="377.21" y="193.29" width="3.5" height="60.58"/><circle class="cls-3" cx="378.96" cy="190.15" r="3.14"/><polygon class="cls-3" points="1911.06 645.41 1726.35 645.41 1703.3 127.9 1911.06 171.03 1911.06 645.41"/><polygon class="cls-3" points="1105.19 349.87 1105.19 176.85 1076.22 176.85 1076.22 130.5 1065.87 130.5 1065.87 62.53 1008.85 62.53 1008.85 12.58 1003.78 12.58 1003.78 62.53 992.61 62.53 992.61 0 987.53 0 987.53 62.53 951.49 62.53 951.49 176.85 932.87 176.85 932.87 349.87 916.91 349.87 916.91 665.01 1116.41 665.01 1116.41 349.87 1105.19 349.87"/><rect class="cls-3" x="109.12" y="639" width="2206.97" height="52.49"/><polygon class="cls-5" points="1408.21 678.63 1310.48 678.63 1348.56 482.93 1408.21 482.93 1408.21 678.63"/><rect class="cls-5" x="29.93" y="686.25" width="2317.22" height="151.73"/><polygon class="cls-5" points="1328.12 316.49 1328.12 229.77 1296.74 229.77 1296.74 196.76 1279.95 196.76 1279.95 169.03 1274.06 169.03 1274.06 121.48 1272.54 121.48 1272.54 169.03 1266.65 169.03 1266.65 196.76 1249.86 196.76 1249.86 229.77 1218.72 229.77 1218.72 316.49 1212.25 316.49 1212.25 473.93 1163.97 473.93 1163.97 653.41 1212.25 653.41 1260.53 653.41 1334.35 653.41 1334.35 316.49 1328.12 316.49"/><polygon class="cls-5" points="1508.46 416.11 1356.57 416.11 1356.57 418.87 1363.45 418.87 1363.45 675.69 1501.59 675.69 1501.59 418.87 1508.46 418.87 1508.46 416.11"/><rect class="cls-5" x="681.2" y="480.08" width="134.66" height="213.94"/><rect class="cls-5" x="429.32" y="589.69" width="231.6" height="104.33"/><rect class="cls-5" x="553.46" y="356.6" width="50.84" height="256.2"/><rect class="cls-5" x="564.68" y="288.26" width="2.64" height="139.32"/><rect class="cls-5" x="573.27" y="298.82" width="2.64" height="139.32"/><rect class="cls-5" x="557.38" y="340.75" width="31.08" height="34.34"/><rect class="cls-5" x="651.84" y="518.37" width="88.48" height="175.64"/><rect class="cls-5" x="837.69" y="332.5" width="166.09" height="361.51"/><rect class="cls-5" x="854.01" y="320.08" width="133.45" height="60.21"/><rect class="cls-5" x="824.82" y="340.07" width="191.84" height="4.23"/><rect class="cls-5" x="807.6" y="511.44" width="78.26" height="182.57"/><rect class="cls-5" x="247.08" y="504.51" width="89.8" height="189.51"/><rect class="cls-5" x="276.13" y="453" width="178.94" height="241.01"/><rect class="cls-5" x="265.69" y="443.76" width="194" height="9.24"/><rect class="cls-5" x="284.05" y="418.67" width="78.64" height="48.86"/><rect class="cls-5" x="388.38" y="418.67" width="13.21" height="29.71"/><rect class="cls-5" x="414.79" y="418.67" width="14.53" height="29.71"/><rect class="cls-5" x="198.22" y="620.72" width="93.76" height="73.29"/><rect class="cls-5" x="162.8" y="589.69" width="44.4" height="104.33"/><rect class="cls-5" x="109.12" y="657.37" width="75.88" height="36.65"/><rect class="cls-5" x="987.47" y="612.8" width="935.02" height="81.22"/><path class="cls-5" d="M1531.58,775.41a11.23,11.23,0,0,0-11.19,10.3l-13.16-.43c0-1.29,0-2.58,0-3.88a138.49,138.49,0,0,0-8.24-47.27l11-4a11.22,11.22,0,1,0-.43-1.17l-11,4.05a137.76,137.76,0,0,0-28.32-45.77l8.6-8.06a11.3,11.3,0,1,0-.85-.91l-8.61,8.06c-.88-.94-1.78-1.86-2.7-2.78a138.31,138.31,0,0,0-44.7-30l4.73-11.52a11.35,11.35,0,1,0-1.16-.45l-4.72,11.5A138,138,0,0,0,1374,643l.51-15.75h.36a11.21,11.21,0,1,0-1.6-.11L1372.7,643c-1.28,0-2.58,0-3.87,0a138.61,138.61,0,0,0-45.46,7.6l-4.53-12.85a11.17,11.17,0,1,0-1.18.41l4.53,12.85a137.88,137.88,0,0,0-47.58,29l-8.21-8.77a11.21,11.21,0,1,0-.89.87l8.2,8.75c-.94.89-1.87,1.79-2.78,2.7a138.51,138.51,0,0,0-27.61,39.28L1232.89,718a11.43,11.43,0,0,0,.58-3.58,11.24,11.24,0,1,0-1,4.74l10.38,4.79a137.62,137.62,0,0,0-12.33,52.37l-13.4-.43a11.19,11.19,0,1,0,0,1.25l13.39.43c0,1.29,0,2.58,0,3.87a138.51,138.51,0,0,0,8.24,47.28l-11,4.05a11.22,11.22,0,1,0,.43,1.17l11-4a137.76,137.76,0,0,0,28.32,45.77l-8.6,8.06a11.3,11.3,0,1,0,.85.91l8.61-8.06c.88.93,1.78,1.86,2.7,2.78a139.07,139.07,0,0,0,29,22.25l-67.76,124.87H1220V1030h-6v7.1h309.56V1030h-5.95v-3.57H1505.5l-67.76-124.87a138.4,138.4,0,0,0,25.3-18.7l11,11.72a11.3,11.3,0,1,0,1-.77L1464,882c.94-.89,1.87-1.79,2.78-2.7A138.71,138.71,0,0,0,1494.34,840l12.23,5.64a11,11,0,0,0-.35,2.76,11.24,11.24,0,1,0,.72-4l-12.08-5.57a137.67,137.67,0,0,0,12.33-52.37l13.16.42a11.24,11.24,0,1,0,11.23-11.54Zm-28,6c0,1.26,0,2.51,0,3.76l-38.77-1.26c0-.83,0-1.66,0-2.5a95.48,95.48,0,0,0-5.69-32.55l36.46-13.43A134.77,134.77,0,0,1,1503.54,781.4Zm-40.69,2.44L1376.37,781a6.77,6.77,0,0,0-.26-1.63l81.19-29.9a93.57,93.57,0,0,1,5.58,31.91C1462.88,782.22,1462.87,783,1462.85,783.84Zm-188-4.87,86.47,2.81a7.4,7.4,0,0,0,.27,1.64l-81.19,29.89a93.48,93.48,0,0,1-5.58-31.91Q1274.78,780.19,1274.81,779Zm99.94-2.26,63.1-59.12a94.34,94.34,0,0,1,19,30.73l-81.19,29.9A7.76,7.76,0,0,0,1374.75,776.71Zm-.85-.91a7.61,7.61,0,0,0-1.63-1.12l32.86-80a94.38,94.38,0,0,1,31.87,22Zm-2.79-1.6a8,8,0,0,0-1.41-.3l2.81-86.47a93.69,93.69,0,0,1,31.47,6.74Zm-2.66-.34a7.63,7.63,0,0,0-1.53.24l-28.77-81.61a93.87,93.87,0,0,1,30.68-5.14l2.43,0Zm-2.71.65a7.46,7.46,0,0,0-1.6,1L1305,712.39a94.1,94.1,0,0,1,32-19.48Zm-2.51,1.83a7.5,7.5,0,0,0-1,1.34l-78.55-36.26a94.5,94.5,0,0,1,20.39-28.18Zm-1.5,2.47a7.14,7.14,0,0,0-.4,1.73l-86.47-2.81a93.5,93.5,0,0,1,8.32-35.18Zm.25,5.78a7.48,7.48,0,0,0,.72,1.23l-.51.95-62.38,58.45a94.28,94.28,0,0,1-19-30.74Zm-1.68,5.66-39.16,72.19a94.8,94.8,0,0,1-20.48-16.3Zm4.26-2.61a8.61,8.61,0,0,0,.83.49l-32.86,80a93.42,93.42,0,0,1-9.22-4.48Zm2,1a8,8,0,0,0,1.41.3l-2.81,86.47a93.69,93.69,0,0,1-31.47-6.74Zm2.28,86.85c-.81,0-1.62,0-2.43,0l2.81-86.47a7.63,7.63,0,0,0,1.53-.24l28.76,81.6A93.51,93.51,0,0,1,1368.83,875.46Zm3.09-87.16a8.49,8.49,0,0,0,1.18-.66l41.25,76a92.75,92.75,0,0,1-13.67,6.22Zm6.94,4.72,53.79,57.4a95,95,0,0,1-16.13,12Zm-2.35-4.33-1.55-2.87a6.2,6.2,0,0,0,.44-.69L1454,821.38a94.42,94.42,0,0,1-20.39,28.19Zm-.58-4.7a7.44,7.44,0,0,0,.4-1.72l86.47,2.81a93.41,93.41,0,0,1-8.32,35.17Zm-44.12,85.91-14.76,35.94a131.75,131.75,0,0,1-13.17-6.35l18.53-34.17A97.13,97.13,0,0,0,1331.81,869.9Zm1.16.47a95.43,95.43,0,0,0,32.12,6.88L1363.83,916a134.08,134.08,0,0,1-45.62-9.7Zm33.37,6.93q1.25,0,2.49,0a95.49,95.49,0,0,0,31.3-5.25L1413,908.72a134.84,134.84,0,0,1-44.21,7.39c-1.25,0-2.5,0-3.75-.05Zm35-5.63a96,96,0,0,0,14-6.35l18.53,34.17a133,133,0,0,1-19.56,8.82Zm93.79-137.42-36.46,13.43a96,96,0,0,0-19.42-31.37l28.34-26.56A134,134,0,0,1,1495.09,734.25Zm-31-48.1c.89.89,1.76,1.78,2.62,2.69l-28.34,26.55a96.25,96.25,0,0,0-32.52-22.48L1420.61,657A134.42,134.42,0,0,1,1464.08,686.15Zm-44.63-29.66-14.76,36a95.43,95.43,0,0,0-32.12-6.88l1.26-38.77A134.08,134.08,0,0,1,1419.45,656.49Zm-50.62-9.79c1.25,0,2.5,0,3.75,0l-1.26,38.76-2.49,0a95.49,95.49,0,0,0-31.3,5.25l-12.91-36.65A135.1,135.1,0,0,1,1368.83,646.7Zm-45.39,7.8,12.91,36.64A96.17,96.17,0,0,0,1303.73,711l-26.55-28.34A133.87,133.87,0,0,1,1323.44,654.5Zm-49.86,31.65c.88-.89,1.78-1.76,2.69-2.62l26.55,28.34A96.54,96.54,0,0,0,1282,740.64l-35.29-16.29A134.76,134.76,0,0,1,1273.58,686.15Zm-27.38,39.33,35.28,16.29a95.4,95.4,0,0,0-8.49,35.89l-38.78-1.26A134.05,134.05,0,0,1,1246.2,725.48Zm-12.08,55.92c0-1.25,0-2.5.05-3.75l38.77,1.26q0,1.25,0,2.49A95.49,95.49,0,0,0,1278.6,814l-36.46,13.42A134.73,134.73,0,0,1,1234.12,781.4Zm8.45,47.16L1279,815.13a96,96,0,0,0,19.42,31.37l-28.35,26.56A134.1,134.1,0,0,1,1242.57,828.56Zm31,48.1c-.89-.89-1.76-1.79-2.62-2.69l28.34-26.55a96,96,0,0,0,21,16.66l-18.55,34.18A135.48,135.48,0,0,1,1273.58,876.66Zm229.08,149.77H1235l67.09-123.65a134.79,134.79,0,0,0,13.54,6.53l-4.73,11.52a11.35,11.35,0,1,0,1.16.45l4.72-11.5a138,138,0,0,0,46.93,10l-.39,11.78a11.23,11.23,0,1,0,1.25,0l.39-11.79c1.28,0,2.58.06,3.87.06a138.61,138.61,0,0,0,45.46-7.6l4,11.45a11.24,11.24,0,1,0,4.76-1.06,11,11,0,0,0-3.6.6l-4-11.41a136.27,136.27,0,0,0,20.1-9.06ZM1436,898.26l-18.55-34.18a96.16,96.16,0,0,0,16.52-12.29l26.55,28.34A134.88,134.88,0,0,1,1436,898.26Zm28.12-21.6c-.88.88-1.78,1.76-2.69,2.61l-26.55-28.33a96.54,96.54,0,0,0,20.81-28.77l35.29,16.29A134.76,134.76,0,0,1,1464.08,876.66Zm27.38-39.33L1456.18,821a95.41,95.41,0,0,0,8.49-35.9l38.78,1.26A134.1,134.1,0,0,1,1491.46,837.33Z" transform="translate(316.24 -387.44)"/><rect class="cls-5" x="1874.94" y="482.46" width="144.39" height="211.55"/><rect class="cls-5" x="1998.2" y="564.71" width="144.39" height="128.11"/><rect class="cls-5" x="1438.26" y="545.9" width="81" height="107.51"/><rect class="cls-5" x="1947.14" y="281.27" width="102.13" height="412.74"/><polygon class="cls-5" points="2217.42 694.01 2082.72 694.01 2082.72 453 2184.85 453 2217.42 694.01"/><rect class="cls-5" x="2158.43" y="639" width="117.97" height="55.02"/><rect class="cls-5" x="2022.85" y="195.05" width="3.52" height="112.16"/><rect class="cls-5" x="2034.74" y="219.11" width="3.52" height="112.16"/><rect class="cls-5" x="2012.07" y="234.6" width="3.52" height="112.16"/><rect class="cls-5" x="2088" y="433.52" width="48.2" height="37.97"/><rect class="cls-5" x="2093.28" y="419.99" width="37.64" height="21.34"/><rect class="cls-5" x="2155.35" y="444.65" width="9.24" height="15.33"/><rect class="cls-5" x="2167.87" y="430.66" width="13.21" height="29.32"/><path class="cls-6" d="M1696.57,728a2.68,2.68,0,1,0-2.64,3.14A2.92,2.92,0,0,0,1696.57,728Z" transform="translate(316.24 -387.44)"/><polygon class="cls-6" points="2300.13 722.22 2283.77 612.8 2250.31 612.8 2250.31 522 2254.45 522 2254.45 513.79 2238.21 513.79 2238.21 478.42 2236.22 478.42 2236.22 513.79 2225 513.79 2225 484.81 2223.02 484.81 2223.02 513.79 2155.35 513.79 2155.35 522 2159.97 522 2159.97 706.23 2082.72 706.23 2082.72 623.71 2038.72 623.71 2038.72 420.93 2042.75 420.93 2042.75 410.98 2033.96 410.98 2033.96 398.24 2023.85 398.24 2023.85 393.46 2023.85 378.89 2023.85 366.26 2011.64 366.26 2011.64 343.68 2010.17 343.68 2008.71 343.68 2008.71 366.26 2002.13 366.26 1998.15 378.89 1971.53 378.89 1971.53 398.24 1901.84 398.24 1901.84 410.98 1893.05 410.98 1893.05 420.93 1897.08 420.93 1897.08 552.86 1838.77 552.86 1838.77 682.5 1774.07 653.83 1774.07 528 1784.51 528 1784.51 518.76 1766.14 518.76 1766.14 493.67 1687.5 493.67 1687.5 518.76 1661.81 518.76 1661.81 493.67 1648.61 493.67 1648.61 518.76 1635.4 518.76 1635.4 493.67 1620.88 493.67 1620.88 518.76 1590.5 518.76 1590.5 528 1595.12 528 1595.12 702.4 1565.63 702.4 1565.63 700.57 1560.29 700.57 1560.29 650.88 1565.63 650.88 1565.63 646.89 1560.29 646.89 1560.29 597.19 1565.63 597.19 1565.63 593.2 1560.29 593.2 1560.29 543.51 1565.63 543.51 1565.63 539.52 1560.29 539.52 1560.29 489.82 1565.63 489.82 1565.63 485.83 1560.29 485.83 1560.29 436.14 1565.63 436.14 1565.63 432.15 1560.29 432.15 1560.29 380.72 1569.44 380.72 1569.44 376.72 1574.09 376.72 1574.09 365.81 1487.22 365.81 1487.22 353.69 1490.05 353.69 1490.05 350.18 1442.76 350.18 1442.76 353.69 1445.58 353.69 1445.58 365.81 1424.06 365.81 1424.06 376.72 1428.71 376.72 1428.71 380.72 1437.86 380.72 1437.86 432.15 1432.52 432.15 1432.52 436.14 1437.86 436.14 1437.86 485.83 1432.52 485.83 1432.52 489.82 1437.86 489.82 1437.86 539.52 1432.52 539.52 1432.52 543.51 1437.86 543.51 1437.86 593.2 1432.52 593.2 1432.52 597.19 1437.86 597.19 1437.86 646.89 1432.52 646.89 1432.52 650.88 1437.86 650.88 1437.86 700.57 1432.52 700.57 1432.52 704.56 1437.86 704.56 1437.86 745.17 1408.21 745.17 1408.21 588.24 1288.91 588.24 1288.91 702.4 1269.54 702.4 1269.54 346.76 1255.21 346.76 1255.21 355.91 1228.77 362.38 1228.77 356.44 1214.44 356.44 1214.44 365.89 1188 372.36 1188 365.54 1173.67 365.54 1173.67 375.86 1147.22 382.33 1147.22 376.7 1132.89 376.7 1132.89 385.83 1106.45 392.3 1106.45 387.46 1092.12 387.46 1092.12 736.71 1071.96 736.71 1071.96 550.51 997.29 550.51 997.29 665.01 920.74 665.01 920.74 567.37 911.31 567.37 911.31 535.3 916.91 535.3 916.91 532.08 892.13 532.08 892.13 522 889.49 522 889.49 532.08 881.57 532.08 881.57 480.33 879.59 480.33 879.59 532.08 869.27 532.08 869.27 535.3 875.34 535.3 875.34 567.37 824.82 567.37 824.82 641.85 775.63 641.85 749.95 736.71 698.41 736.71 698.41 427 630.17 427 630.17 415.91 634.04 415.91 634.04 412.02 582.36 412.02 582.36 415.91 586.42 415.91 586.42 427 586.42 444.85 586.42 656.95 554.25 656.95 554.25 576.81 565.68 576.81 565.68 569.56 484.72 569.56 484.72 521.14 469.27 521.14 469.27 511.19 434.8 511.19 434.8 521.14 406.75 521.14 406.75 694.01 314.72 694.01 314.72 565.8 237.23 565.8 237.23 667.07 169.98 667.07 169.98 731.86 121.5 731.86 121.5 650.41 57.73 650.41 57.73 719.86 0 719.86 0 837.98 57.73 837.98 77.24 837.98 109.12 837.98 121.5 837.98 169.98 837.98 237.23 837.98 259.83 837.98 271.93 837.98 314.72 837.98 406.75 837.98 434.8 837.98 469.27 837.98 484.72 837.98 545.12 837.98 554.25 837.98 586.42 837.98 640.38 837.98 666.97 837.98 698.41 837.98 824.82 837.98 854.01 837.98 903.29 837.98 920.74 837.98 998.6 837.98 1019.52 837.98 1092.12 837.98 1099.29 837.98 1106.45 837.98 1132.89 837.98 1147.22 837.98 1173.67 837.98 1185.64 837.98 1188 837.98 1214.44 837.98 1228.77 837.98 1251.5 837.98 1255.21 837.98 1262.38 837.98 1269.54 837.98 1288.91 837.98 1387.52 837.98 1401.6 837.98 1408.21 837.98 1437.86 837.98 1490.05 837.98 1537.83 837.98 1560.29 837.98 1595.12 837.98 1681.63 837.98 1773.11 837.98 1774.07 837.98 1838.77 837.98 1874.94 837.98 1897.08 837.98 1911.06 837.98 2019.33 837.98 2038.72 837.98 2061.91 837.98 2082.72 837.98 2159.97 837.98 2217.42 837.98 2229.18 837.98 2250.31 837.98 2378.85 837.98 2378.85 722.22 2300.13 722.22"/><g class="cls-7"><rect class="cls-8" x="414.79" y="533.69" width="5.9" height="5.9"/><rect class="cls-8" x="426.65" y="533.69" width="5.9" height="5.9"/><rect class="cls-8" x="414.79" y="547.56" width="5.9" height="5.9"/><rect class="cls-8" x="426.65" y="547.56" width="5.9" height="5.9"/><rect class="cls-8" x="414.79" y="560.96" width="5.9" height="5.9"/><rect class="cls-8" x="439.83" y="533.69" width="5.9" height="5.9"/></g><rect class="cls-9" x="846.73" y="356.44" width="4.03" height="22.28"/><rect class="cls-9" x="860.6" y="356.44" width="4.03" height="22.28"/><rect class="cls-9" x="874.48" y="356.44" width="4.03" height="22.28"/><rect class="cls-9" x="888.35" y="356.44" width="4.03" height="22.28"/><rect class="cls-9" x="902.22" y="356.44" width="4.03" height="22.28"/><rect class="cls-9" x="916.09" y="356.44" width="4.03" height="22.28"/><rect class="cls-9" x="929.96" y="356.44" width="4.03" height="22.28"/><rect class="cls-9" x="943.84" y="356.44" width="4.03" height="22.28"/><rect class="cls-9" x="957.71" y="356.44" width="4.03" height="22.28"/><rect class="cls-9" x="971.58" y="356.44" width="4.03" height="22.28"/><rect class="cls-9" x="985.45" y="356.44" width="4.03" height="22.28"/><rect class="cls-9" x="846.73" y="387.46" width="4.03" height="22.28"/><rect class="cls-9" x="860.6" y="387.46" width="4.03" height="22.28"/><rect class="cls-9" x="874.48" y="387.46" width="4.03" height="22.28"/><rect class="cls-9" x="888.35" y="387.46" width="4.03" height="22.28"/><rect class="cls-9" x="902.22" y="387.46" width="4.03" height="22.28"/><rect class="cls-9" x="916.09" y="387.46" width="4.03" height="22.28"/><rect class="cls-9" x="929.96" y="387.46" width="4.03" height="22.28"/><rect class="cls-9" x="943.84" y="387.46" width="4.03" height="22.28"/><rect class="cls-9" x="957.71" y="387.46" width="4.03" height="22.28"/><rect class="cls-9" x="971.58" y="387.46" width="4.03" height="22.28"/><rect class="cls-9" x="985.45" y="387.46" width="4.03" height="22.28"/><rect class="cls-9" x="846.73" y="418.48" width="4.03" height="22.28"/><rect class="cls-9" x="860.6" y="418.48" width="4.03" height="22.28"/><rect class="cls-9" x="874.48" y="418.48" width="4.03" height="22.28"/><rect class="cls-9" x="888.35" y="418.48" width="4.03" height="22.28"/><rect class="cls-9" x="902.22" y="418.48" width="4.03" height="22.28"/><rect class="cls-9" x="916.09" y="418.48" width="4.03" height="22.28"/><rect class="cls-9" x="929.96" y="418.48" width="4.03" height="22.28"/><rect class="cls-9" x="943.84" y="418.48" width="4.03" height="22.28"/><rect class="cls-9" x="957.71" y="418.48" width="4.03" height="22.28"/><rect class="cls-9" x="971.58" y="418.48" width="4.03" height="22.28"/><rect class="cls-9" x="985.45" y="418.48" width="4.03" height="22.28"/><rect class="cls-9" x="888.35" y="449.49" width="4.03" height="22.28"/><rect class="cls-9" x="902.22" y="449.49" width="4.03" height="22.28"/><rect class="cls-9" x="916.09" y="449.49" width="4.03" height="22.28"/><rect class="cls-9" x="929.96" y="449.49" width="4.03" height="22.28"/><rect class="cls-9" x="943.84" y="449.49" width="4.03" height="22.28"/><rect class="cls-9" x="957.71" y="449.49" width="4.03" height="22.28"/><rect class="cls-9" x="971.58" y="449.49" width="4.03" height="22.28"/><rect class="cls-9" x="985.45" y="449.49" width="4.03" height="22.28"/><rect class="cls-9" x="902.22" y="482.23" width="4.03" height="22.28"/><rect class="cls-9" x="916.09" y="482.23" width="4.03" height="22.28"/><rect class="cls-9" x="929.96" y="482.23" width="4.03" height="22.28"/><rect class="cls-9" x="943.84" y="482.23" width="4.03" height="22.28"/><rect class="cls-9" x="957.71" y="482.23" width="4.03" height="22.28"/><rect class="cls-9" x="971.58" y="482.23" width="4.03" height="22.28"/><rect class="cls-9" x="985.45" y="482.23" width="4.03" height="22.28"/><rect class="cls-10" x="1114.92" y="411.74" width="9.51" height="24.12"/><rect class="cls-10" x="1114.92" y="457.87" width="9.51" height="24.12"/><rect class="cls-10" x="1114.92" y="504.01" width="9.51" height="24.12"/><rect class="cls-10" x="1114.92" y="550.14" width="9.51" height="24.12"/><rect class="cls-10" x="1114.92" y="593.64" width="9.51" height="24.12"/><rect class="cls-10" x="1114.92" y="639.77" width="9.51" height="24.12"/><rect class="cls-10" x="1155.69" y="411.74" width="9.51" height="24.12"/><rect class="cls-10" x="1155.69" y="457.87" width="9.51" height="24.12"/><rect class="cls-10" x="1155.69" y="504.01" width="9.51" height="24.12"/><rect class="cls-10" x="1155.69" y="550.14" width="9.51" height="24.12"/><rect class="cls-10" x="1155.69" y="593.64" width="9.51" height="24.12"/><rect class="cls-10" x="1155.69" y="639.77" width="9.51" height="24.12"/><rect class="cls-10" x="1196.46" y="411.74" width="9.51" height="24.12"/><rect class="cls-10" x="1196.46" y="457.87" width="9.51" height="24.12"/><rect class="cls-10" x="1196.46" y="504.01" width="9.51" height="24.12"/><rect class="cls-10" x="1196.46" y="550.14" width="9.51" height="24.12"/><rect class="cls-10" x="1196.46" y="593.64" width="9.51" height="24.12"/><rect class="cls-10" x="1196.46" y="639.77" width="9.51" height="24.12"/><rect class="cls-10" x="1237.24" y="411.74" width="9.51" height="24.12"/><rect class="cls-10" x="1237.24" y="457.87" width="9.51" height="24.12"/><rect class="cls-10" x="1237.24" y="504.01" width="9.51" height="24.12"/><rect class="cls-10" x="1237.24" y="550.14" width="9.51" height="24.12"/><rect class="cls-10" x="1237.24" y="593.64" width="9.51" height="24.12"/><rect class="cls-10" x="1237.24" y="639.77" width="9.51" height="24.12"/><rect class="cls-9" x="961.74" y="75.38" width="7.91" height="21.11"/><rect class="cls-9" x="981.26" y="75.38" width="7.91" height="21.11"/><rect class="cls-9" x="1000.78" y="75.38" width="7.91" height="21.11"/><rect class="cls-9" x="1020.31" y="75.38" width="7.91" height="21.11"/><rect class="cls-9" x="961.74" y="110.53" width="7.91" height="21.11"/><rect class="cls-9" x="981.26" y="110.53" width="7.91" height="21.11"/><rect class="cls-9" x="1000.78" y="110.53" width="7.91" height="21.11"/><rect class="cls-9" x="1020.31" y="110.53" width="7.91" height="21.11"/><rect class="cls-9" x="961.74" y="145.69" width="7.91" height="21.11"/><rect class="cls-9" x="981.26" y="145.69" width="7.91" height="21.11"/><rect class="cls-9" x="1042.45" y="75.38" width="7.91" height="21.11"/><rect class="cls-11" x="434.8" y="289.23" width="5.03" height="19.35"/><rect class="cls-11" x="452.56" y="289.23" width="5.03" height="19.35"/><rect class="cls-11" x="473.33" y="289.23" width="5.03" height="19.35"/><rect class="cls-11" x="491.08" y="289.23" width="5.03" height="19.35"/><rect class="cls-11" x="395.35" y="289.23" width="5.03" height="19.35"/><rect class="cls-11" x="413.11" y="289.23" width="5.03" height="19.35"/><rect class="cls-11" x="434.8" y="322.83" width="5.03" height="19.35"/><rect class="cls-11" x="452.56" y="322.83" width="5.03" height="19.35"/><rect class="cls-11" x="473.33" y="322.83" width="5.03" height="19.35"/><rect class="cls-11" x="491.08" y="322.83" width="5.03" height="19.35"/><rect class="cls-11" x="395.35" y="322.83" width="5.03" height="19.35"/><rect class="cls-11" x="413.11" y="322.83" width="5.03" height="19.35"/><rect class="cls-11" x="434.8" y="356.43" width="5.03" height="19.35"/><rect class="cls-11" x="452.56" y="356.43" width="5.03" height="19.35"/><rect class="cls-11" x="473.33" y="356.43" width="5.03" height="19.35"/><rect class="cls-11" x="491.08" y="356.43" width="5.03" height="19.35"/><rect class="cls-11" x="395.35" y="356.43" width="5.03" height="19.35"/><rect class="cls-11" x="413.11" y="356.43" width="5.03" height="19.35"/><rect class="cls-9" x="1373.85" y="437.52" width="7.8" height="30.01"/><rect class="cls-9" x="1397.7" y="437.52" width="7.8" height="30.01"/><rect class="cls-9" x="1420.16" y="437.52" width="7.8" height="30.01"/><rect class="cls-10" x="1911.06" y="443.76" width="5.92" height="16.88"/><rect class="cls-10" x="1929.61" y="443.76" width="5.92" height="16.88"/><rect class="cls-10" x="1911.06" y="443.76" width="5.92" height="16.88"/><rect class="cls-10" x="1929.61" y="443.76" width="5.92" height="16.88"/><rect class="cls-10" x="1947.14" y="443.76" width="5.92" height="16.88"/><rect class="cls-10" x="1965.69" y="443.76" width="5.92" height="16.88"/><rect class="cls-10" x="1911.06" y="474.02" width="5.92" height="16.88"/><rect class="cls-10" x="1929.61" y="474.02" width="5.92" height="16.88"/><rect class="cls-10" x="1911.06" y="474.02" width="5.92" height="16.88"/><rect class="cls-10" x="1929.61" y="474.02" width="5.92" height="16.88"/><rect class="cls-10" x="1947.14" y="474.02" width="5.92" height="16.88"/><rect class="cls-10" x="1965.69" y="474.02" width="5.92" height="16.88"/><rect class="cls-10" x="1911.06" y="506.23" width="5.92" height="16.88"/><rect class="cls-10" x="1929.61" y="506.23" width="5.92" height="16.88"/><rect class="cls-10" x="1911.06" y="506.23" width="5.92" height="16.88"/><rect class="cls-10" x="1929.61" y="506.23" width="5.92" height="16.88"/><rect class="cls-10" x="1947.14" y="506.23" width="5.92" height="16.88"/><rect class="cls-10" x="1965.69" y="506.23" width="5.92" height="16.88"/><rect class="cls-10" x="1985.97" y="443.76" width="5.92" height="16.88"/><rect class="cls-10" x="1985.97" y="474.02" width="5.92" height="16.88"/><rect class="cls-10" x="2004.52" y="443.76" width="5.92" height="16.88"/><rect class="cls-10" x="1448.88" y="393.68" width="6.36" height="26.31"/><rect class="cls-10" x="1480.51" y="393.68" width="6.36" height="26.31"/><rect class="cls-10" x="1512.14" y="393.68" width="6.36" height="26.31"/><rect class="cls-10" x="1543.78" y="393.68" width="6.36" height="26.31"/><rect class="cls-10" x="1448.88" y="447.83" width="6.36" height="26.31"/><rect class="cls-10" x="1480.51" y="447.83" width="6.36" height="26.31"/><rect class="cls-10" x="1512.14" y="447.83" width="6.36" height="26.31"/><rect class="cls-10" x="1543.78" y="447.83" width="6.36" height="26.31"/><rect class="cls-10" x="1448.88" y="503.33" width="6.36" height="26.31"/><rect class="cls-10" x="1480.51" y="503.33" width="6.36" height="26.31"/><rect class="cls-10" x="1512.14" y="503.33" width="6.36" height="26.31"/><rect class="cls-10" x="1543.78" y="503.33" width="6.36" height="26.31"/><rect class="cls-10" x="1448.88" y="558.83" width="6.36" height="26.31"/><rect class="cls-10" x="1480.51" y="558.83" width="6.36" height="26.31"/><rect class="cls-10" x="1512.14" y="558.83" width="6.36" height="26.31"/><rect class="cls-10" x="1543.78" y="558.83" width="6.36" height="26.31"/><rect class="cls-10" x="1448.88" y="609.24" width="6.36" height="26.31"/><rect class="cls-10" x="1480.51" y="609.24" width="6.36" height="26.31"/><rect class="cls-10" x="1512.14" y="609.24" width="6.36" height="26.31"/><rect class="cls-10" x="1448.88" y="665.47" width="6.36" height="26.31"/><rect class="cls-10" x="1480.51" y="665.47" width="6.36" height="26.31"/><rect class="cls-10" x="1512.14" y="665.47" width="6.36" height="26.31"/><rect class="cls-10" x="1543.78" y="609.24" width="6.36" height="26.31"/><rect class="cls-10" x="2167.97" y="532.78" width="6.5" height="15.1"/><rect class="cls-10" x="2167.97" y="557.16" width="6.5" height="15.1"/><rect class="cls-10" x="2184.64" y="532.78" width="6.5" height="15.1"/></g></g></svg>